# xmcd
#
# Track frame offsets:
#	150
#	22149
#	40142
#	55142
#	68986
#	86978
#	105195
#	127635
#	143527
#	160598
#	183067
#
# Disc length: 2649 seconds
# Revision: 2
# Processed by: cddbd v1.5.2PL0 Copyright (c) Steve Scherf et al.
# Submitted via: dBpowerAMP V12.0
#
DISCID=810a570b
DTITLE=RhettWalkerBand,Nashville,TN - Here's To The Ones
DYEAR=2014
DGENRE=Country
TTITLE0=Clone
TTITLE1=Here's To The Ones
TTITLE2=Love Like Jesus
TTITLE3=Adam's Son
TTITLE4=Dead Man
TTITLE5=The Mystery
TTITLE6=The Other Side
TTITLE7=Amazed
TTITLE8=Better Part Of Me
TTITLE9=Someone Else's Song
TTITLE10=Broken Man
EXTD=
EXTT0=
EXTT1=
EXTT2=
EXTT3=
EXTT4=
EXTT5=
EXTT6=
EXTT7=
EXTT8=
EXTT9=
EXTT10=
PLAYORDER=
